<svg width="25" height="25" viewBox="0 0 25 25" fill="none" xmlns="http://www.w3.org/2000/svg">
<path d="M7.8125 10.9375C8.67545 10.9375 9.375 10.2379 9.375 9.375C9.375 8.51206 8.67545 7.8125 7.8125 7.8125C6.94956 7.8125 6.25 8.51206 6.25 9.375C6.25 10.2379 6.94956 10.9375 7.8125 10.9375Z" fill="#DEDDFD"/>
<path d="M12.5 8.59375C13.3629 8.59375 14.0625 7.8942 14.0625 7.03125C14.0625 6.16831 13.3629 5.46875 12.5 5.46875C11.6371 5.46875 10.9375 6.16831 10.9375 7.03125C10.9375 7.8942 11.6371 8.59375 12.5 8.59375Z" fill="#DEDDFD"/>
<path d="M17.1875 10.9375C18.0504 10.9375 18.75 10.2379 18.75 9.375C18.75 8.51206 18.0504 7.8125 17.1875 7.8125C16.3246 7.8125 15.625 8.51206 15.625 9.375C15.625 10.2379 16.3246 10.9375 17.1875 10.9375Z" fill="#DEDDFD"/>
<path d="M17.9688 15.625C18.8317 15.625 19.5312 14.9254 19.5312 14.0625C19.5312 13.1996 18.8317 12.5 17.9688 12.5C17.1058 12.5 16.4062 13.1996 16.4062 14.0625C16.4062 14.9254 17.1058 15.625 17.9688 15.625Z" fill="#DEDDFD"/>
<path d="M14.8438 19.5312C15.7067 19.5312 16.4062 18.8317 16.4062 17.9688C16.4062 17.1058 15.7067 16.4062 14.8438 16.4062C13.9808 16.4062 13.2812 17.1058 13.2812 17.9688C13.2812 18.8317 13.9808 19.5312 14.8438 19.5312Z" fill="#DEDDFD"/>
<path d="M12.9219 1.56251C11.4504 1.50571 9.98269 1.74662 8.60661 2.27079C7.23053 2.79497 5.97446 3.59161 4.91371 4.61296C3.85296 5.63432 3.00937 6.85935 2.43352 8.21462C1.85767 9.56988 1.56141 11.0275 1.5625 12.5C1.56246 13.0792 1.69602 13.6505 1.95277 14.1697C2.20953 14.6888 2.58257 15.1417 3.04289 15.4932C3.50321 15.8447 4.03839 16.0852 4.60682 16.1962C5.17526 16.3071 5.76162 16.2854 6.32032 16.1328L7.19532 15.8906C7.5434 15.7956 7.90872 15.7823 8.26281 15.8516C8.61691 15.9209 8.95021 16.071 9.23677 16.2903C9.52332 16.5096 9.75538 16.792 9.91487 17.1157C10.0744 17.4393 10.157 17.7954 10.1563 18.1563V21.0938C10.1563 21.7154 10.4032 22.3115 10.8427 22.751C11.2823 23.1906 11.8784 23.4375 12.5 23.4375C13.9725 23.4386 15.4301 23.1423 16.7854 22.5665C18.1407 21.9906 19.3657 21.147 20.387 20.0863C21.4084 19.0256 22.205 17.7695 22.7292 16.3934C23.2534 15.0173 23.4943 13.5496 23.4375 12.0781C23.3242 9.32553 22.1799 6.7162 20.2318 4.76817C18.2838 2.82014 15.6745 1.67586 12.9219 1.56251ZM19.2578 18.9922C18.3855 19.9055 17.3366 20.632 16.175 21.1276C15.0133 21.6231 13.763 21.8774 12.5 21.875C12.2928 21.875 12.0941 21.7927 11.9476 21.6462C11.8011 21.4997 11.7188 21.301 11.7188 21.0938V18.1563C11.7188 17.1203 11.3072 16.1267 10.5746 15.3941C9.84208 14.6616 8.84851 14.25 7.8125 14.25C7.46145 14.2506 7.11203 14.2979 6.77344 14.3906L5.89844 14.6328C5.57163 14.7204 5.22903 14.7315 4.89722 14.6654C4.56541 14.5992 4.2533 14.4575 3.98509 14.2512C3.71688 14.045 3.49978 13.7797 3.35063 13.476C3.20147 13.1723 3.12427 12.8384 3.125 12.5C3.12403 11.2373 3.37814 9.9875 3.87207 8.82546C4.366 7.66342 5.08958 6.61313 5.9994 5.73761C6.90922 4.86208 7.98652 4.17937 9.16667 3.73042C10.3468 3.28148 11.6055 3.07555 12.8672 3.12501C15.2166 3.24737 17.4373 4.23568 19.1008 5.89919C20.7643 7.56269 21.7526 9.78345 21.875 12.1328C21.9288 13.3953 21.7244 14.6555 21.2744 15.8362C20.8244 17.017 20.1382 18.0936 19.2578 19V18.9922Z" fill="#DEDDFD"/>
</svg>
