<svg width="25" height="25" viewBox="0 0 25 25" fill="none" xmlns="http://www.w3.org/2000/svg">
<path d="M12.5 1.5625C10.3368 1.5625 8.22212 2.20397 6.42346 3.4058C4.62479 4.60763 3.22291 6.31583 2.39507 8.3144C1.56724 10.313 1.35064 12.5121 1.77267 14.6338C2.19469 16.7555 3.23639 18.7043 4.76602 20.234C6.29566 21.7636 8.24454 22.8053 10.3662 23.2273C12.4879 23.6494 14.687 23.4328 16.6856 22.6049C18.6842 21.7771 20.3924 20.3752 21.5942 18.5765C22.796 16.7779 23.4375 14.6632 23.4375 12.5C23.4375 9.59919 22.2852 6.8172 20.234 4.76602C18.1828 2.71484 15.4008 1.5625 12.5 1.5625ZM12.5 21.875C10.6458 21.875 8.83325 21.3252 7.29153 20.295C5.74982 19.2649 4.54821 17.8007 3.83863 16.0877C3.12906 14.3746 2.94341 12.4896 3.30514 10.671C3.66688 8.85246 4.55976 7.18199 5.87088 5.87087C7.182 4.55976 8.85246 3.66687 10.671 3.30514C12.4896 2.9434 14.3746 3.12906 16.0877 3.83863C17.8007 4.5482 19.2649 5.74982 20.295 7.29153C21.3252 8.83324 21.875 10.6458 21.875 12.5C21.875 14.9864 20.8873 17.371 19.1291 19.1291C17.371 20.8873 14.9864 21.875 12.5 21.875Z" fill="#DEDDFD"/>
<path d="M16.0156 8.59375C15.6293 8.59375 15.2517 8.7083 14.9305 8.92291C14.6093 9.13752 14.359 9.44256 14.2112 9.79945C14.0633 10.1563 14.0247 10.549 14.1 10.9279C14.1754 11.3068 14.3614 11.6548 14.6346 11.9279C14.9077 12.2011 15.2557 12.3871 15.6346 12.4625C16.0135 12.5378 16.4062 12.4992 16.7631 12.3513C17.1199 12.2035 17.425 11.9532 17.6396 11.632C17.8542 11.3108 17.9688 10.9332 17.9688 10.5469C17.9688 10.0289 17.763 9.53209 17.3967 9.16581C17.0304 8.79953 16.5336 8.59375 16.0156 8.59375ZM6.25 10.1562H10.9375V11.7188H6.25V10.1562ZM12.5 18.75C13.5784 18.7482 14.638 18.4673 15.5758 17.9348C16.5135 17.4023 17.2975 16.6362 17.8516 15.7109L16.5156 14.9297C16.0987 15.622 15.5099 16.1948 14.8063 16.5925C14.1026 16.9901 13.3082 17.199 12.5 17.199C11.6918 17.199 10.8974 16.9901 10.1937 16.5925C9.49014 16.1948 8.9013 15.622 8.48437 14.9297L7.14844 15.7109C7.70247 16.6362 8.48648 17.4023 9.42424 17.9348C10.362 18.4673 11.4216 18.7482 12.5 18.75Z" fill="#DEDDFD"/>
</svg>
