<svg width="25" height="25" viewBox="0 0 25 25" fill="none" xmlns="http://www.w3.org/2000/svg">
<g clip-path="url(#clip0_7_1024)">
<path fill-rule="evenodd" clip-rule="evenodd" d="M4.45937 24.7719C4.3501 24.8814 4.21077 24.956 4.05904 24.9863C3.90731 25.0166 3.75001 25.0011 3.60708 24.9419C3.46416 24.8826 3.34204 24.7823 3.25621 24.6535C3.17039 24.5248 3.12472 24.3735 3.12499 24.2188V21.875H0.781244C0.626525 21.8753 0.475207 21.8296 0.346474 21.7438C0.217741 21.658 0.11739 21.5358 0.0581439 21.3929C-0.00110229 21.25 -0.0165759 21.0927 0.0136847 20.941C0.0439453 20.7892 0.118577 20.6499 0.228119 20.5406L2.57187 18.1969C2.64456 18.1244 2.73082 18.0669 2.82573 18.0278C2.92064 17.9886 3.02233 17.9686 3.12499 17.9688H5.92656L6.75468 17.1406C5.54999 15.8875 4.67968 14.6719 4.09218 13.5156C2.84531 11.0547 2.88124 8.83438 3.75937 7.12188C5.35312 4.00781 9.65624 2.82656 12.5 5.05156C14.4531 3.52031 17.1 3.60156 19.0812 4.81406L20.7687 3.125L18.9797 1.33437C18.8702 1.2252 18.7956 1.08602 18.7653 0.934431C18.735 0.782845 18.7504 0.625674 18.8094 0.482811C18.8685 0.339948 18.9686 0.217816 19.0971 0.131871C19.2256 0.0459259 19.3767 3.28357e-05 19.5312 0L24.2187 0C24.4259 0 24.6247 0.08231 24.7712 0.228823C24.9177 0.375336 25 0.57405 25 0.78125V5.46875C25.0003 5.62347 24.9546 5.77479 24.8688 5.90352C24.783 6.03225 24.6608 6.1326 24.5179 6.19185C24.375 6.2511 24.2177 6.26657 24.0659 6.23631C23.9142 6.20605 23.7749 6.13142 23.6656 6.02188L21.875 4.22969L20.3031 5.80156C20.6719 6.18906 20.9906 6.63125 21.2406 7.12188C22.1187 8.83438 22.1547 11.0547 20.9078 13.5156C19.6687 15.9578 17.1656 18.6531 12.9312 21.4531L12.5 21.7375L12.0687 21.4531C10.5891 20.4892 9.18648 19.412 7.87343 18.2313L7.03125 19.075V21.875C7.03143 21.9777 7.01138 22.0794 6.97223 22.1743C6.93309 22.2692 6.87562 22.3554 6.80312 22.4281L4.45937 24.7719ZM8.97968 17.125C10.0879 18.1174 11.2642 19.0311 12.5 19.8594C16.3375 17.2563 18.4797 14.8484 19.5141 12.8094C20.575 10.7156 20.4625 9.02812 19.85 7.83281C18.5734 5.34062 15.0266 4.62344 13.0594 6.64375L12.5 7.21875L11.9406 6.64375C9.97343 4.62344 6.42499 5.34062 5.14999 7.83281C4.53749 9.02969 4.42499 10.7156 5.48593 12.8094C5.99062 13.8031 6.75937 14.8875 7.85937 16.0359L10.775 13.1187C10.9217 12.9721 11.1207 12.8896 11.3281 12.8896C11.5356 12.8896 11.7345 12.9721 11.8812 13.1187C12.0279 13.2654 12.1104 13.4644 12.1104 13.6719C12.1104 13.8793 12.0279 14.0783 11.8812 14.225L8.97968 17.125Z" fill="#D4D4D4"/>
</g>
<defs>
<clipPath id="clip0_7_1024">
<rect width="25" height="25" fill="white"/>
</clipPath>
</defs>
</svg>
