<svg width="25" height="25" viewBox="0 0 25 25" fill="none" xmlns="http://www.w3.org/2000/svg">
<path fill-rule="evenodd" clip-rule="evenodd" d="M8.45207 2.18125C8.57396 2.24891 8.67553 2.34796 8.74624 2.46812C8.81694 2.58828 8.8542 2.72517 8.85415 2.86458V9.375H10.1583C10.3655 9.375 10.5642 9.45731 10.7107 9.60382C10.8573 9.75033 10.9396 9.94905 10.9396 10.1562C10.9396 10.3634 10.8573 10.5622 10.7107 10.7087C10.5642 10.8552 10.3655 10.9375 10.1583 10.9375H5.98957C5.78237 10.9375 5.58365 10.8552 5.43714 10.7087C5.29063 10.5622 5.20832 10.3634 5.20832 10.1562C5.20832 9.94905 5.29063 9.75033 5.43714 9.60382C5.58365 9.45731 5.78237 9.375 5.98957 9.375H7.29165V4.27396L6.40311 4.82917C6.2274 4.93898 6.01527 4.9745 5.81338 4.92791C5.61148 4.88132 5.43636 4.75643 5.32655 4.58073C5.21673 4.40502 5.18121 4.19289 5.2278 3.99099C5.27439 3.7891 5.39928 3.61398 5.57499 3.50417L7.65832 2.20208C7.77669 2.12799 7.91275 2.08697 8.05235 2.08331C8.19195 2.07964 8.32998 2.11346 8.45207 2.18125ZM13.5448 8.07708C13.5448 7.86988 13.6271 7.67117 13.7736 7.52465C13.9201 7.37814 14.1188 7.29583 14.326 7.29583H19.776C19.9304 7.29597 20.0814 7.34186 20.2097 7.42771C20.3381 7.51357 20.4381 7.63553 20.4972 7.7782C20.5562 7.92087 20.5717 8.07785 20.5416 8.22931C20.5115 8.38076 20.4372 8.51991 20.3281 8.62917L17.4364 11.5219C18.0094 11.6229 18.5375 11.7854 18.9906 12.025C19.9333 12.5219 20.5573 13.3625 20.5573 14.5437C20.5573 15.55 20.0667 16.3667 19.3364 16.9083C18.6208 17.4406 17.6833 17.7104 16.7104 17.7104C15.2864 17.7104 14.3417 17.1604 13.9323 16.9229C13.7531 16.8186 13.6227 16.6474 13.5698 16.447C13.5168 16.2466 13.5457 16.0333 13.65 15.8542C13.7543 15.675 13.9255 15.5446 14.1259 15.4917C14.3263 15.4387 14.5396 15.4676 14.7187 15.5719C15.0635 15.7729 15.7114 16.1479 16.7104 16.1479C17.4114 16.1479 18.0052 15.9521 18.4052 15.6552C18.7906 15.3687 18.9948 14.9937 18.9948 14.5437C18.9948 14.0229 18.7667 13.6729 18.2625 13.4073C17.7021 13.1115 16.8302 12.9458 15.6885 12.9458C15.5341 12.9457 15.3832 12.8998 15.2548 12.8139C15.1265 12.7281 15.0265 12.6061 14.9674 12.4635C14.9083 12.3208 14.8928 12.1638 14.9229 12.0124C14.953 11.8609 15.0273 11.7218 15.1364 11.6125L17.8896 8.85833H14.326C14.1188 8.85833 13.9201 8.77602 13.7736 8.62951C13.6271 8.483 13.5448 8.28428 13.5448 8.07708ZM8.20832 15.849C7.89774 15.8125 7.58367 15.8769 7.31246 16.0326C7.04125 16.1882 6.82726 16.427 6.70207 16.7135C6.61503 16.8984 6.45902 17.0419 6.26748 17.1131C6.07594 17.1843 5.86413 17.1776 5.67745 17.0945C5.49077 17.0114 5.34409 16.8584 5.26885 16.6684C5.19362 16.4784 5.19582 16.2665 5.27499 16.0781C5.53538 15.4881 5.97778 14.9968 6.53746 14.6763C7.09714 14.3558 7.74471 14.2228 8.3854 14.2969C8.99917 14.3599 9.57223 14.6333 10.0073 15.0708C10.4594 15.5354 10.7208 16.1729 10.7208 16.9229C10.7208 18.6323 9.41457 19.4615 8.51249 20.0333C7.95207 20.3885 7.28332 20.7562 6.95519 21.3594H10.1562C10.3634 21.3594 10.5621 21.4417 10.7087 21.5882C10.8552 21.7347 10.9375 21.9334 10.9375 22.1406C10.9375 22.3478 10.8552 22.5465 10.7087 22.6931C10.5621 22.8396 10.3634 22.9219 10.1562 22.9219H5.98957C5.78237 22.9219 5.58365 22.8396 5.43714 22.6931C5.29063 22.5465 5.20832 22.3478 5.20832 22.1406C5.20832 20.2667 6.60103 19.401 7.54478 18.7969C8.61978 18.1104 9.15936 17.7229 9.15936 16.9219C9.15936 16.5521 9.03853 16.3135 8.88853 16.1594C8.70466 15.9807 8.46475 15.8711 8.20936 15.849H8.20832Z" fill="#DEDDFD"/>
</svg>
