<svg width="30" height="30" viewBox="0 0 30 30" fill="none" xmlns="http://www.w3.org/2000/svg">
<path d="M20 2.5C18.6875 2.5 17.3875 2.8375 16.25 3.5125C15.8 3.75 15.375 4.075 15 4.425C14.625 4.075 14.2 3.75 13.75 3.5125C12.6125 2.8375 11.3125 2.5 10 2.5C8.01088 2.5 6.10322 3.29018 4.6967 4.6967C3.29018 6.10322 2.5 8.01088 2.5 10C2.5 11.9891 3.29018 13.8968 4.6967 15.3033C6.10322 16.7098 8.01088 17.5 10 17.5V15C8.67392 15 7.40215 14.4732 6.46447 13.5355C5.52678 12.5979 5 11.3261 5 10C5 8.67392 5.52678 7.40215 6.46447 6.46447C7.40215 5.52678 8.67392 5 10 5C10.7095 5.0032 11.4104 5.15631 12.0567 5.44927C12.7029 5.74224 13.28 6.16846 13.75 6.7V27.5H16.25V6.7C16.35 6.5875 16.45 6.475 16.5625 6.375C17.0391 5.92221 17.6003 5.56784 18.2139 5.33218C18.8276 5.09651 19.4817 4.98417 20.1389 5.00159C20.796 5.019 21.4433 5.16583 22.0436 5.43367C22.644 5.70151 23.1856 6.0851 23.6375 6.5625C24.549 7.52398 25.0414 8.80815 25.0062 10.1326C24.9711 11.457 24.4113 12.7132 23.45 13.625C22.5 14.5125 21.2875 15 20 15V17.5C21.9891 17.5 23.8968 16.7098 25.3033 15.3033C26.7098 13.8968 27.5 11.9891 27.5 10C27.5 8.01088 26.7098 6.10322 25.3033 4.6967C23.8968 3.29018 21.9891 2.5 20 2.5Z" fill="#D4D4D4"/>
</svg>
