<svg width="30" height="30" viewBox="0 0 30 30" fill="none" xmlns="http://www.w3.org/2000/svg">
<path d="M15 5C8.125 5 2.5 9.475 2.5 15C2.5 17.65 4.5625 19.8375 7.2 20H7.5C8.82608 20 10.0979 19.4732 11.0355 18.5355C11.9732 17.5979 12.5 16.3261 12.5 15C12.5 13.6739 11.9732 12.4021 11.0355 11.4645C10.0979 10.5268 8.82608 10 7.5 10H7.2C9.30484 8.01399 12.1068 6.93631 15 7C17.2125 6.975 19.375 7.5875 21.25 8.75L22.8125 7.1875C20.4726 5.72282 17.7603 4.96336 15 5ZM7.5 12.5C8.16304 12.5 8.79893 12.7634 9.26777 13.2322C9.73661 13.7011 10 14.337 10 15C10 16.3875 8.85 17.5 7.5 17.5C6.87808 17.5031 6.27733 17.2743 5.81506 16.8583C5.35279 16.4422 5.06218 15.8688 5 15.25V14.75C5.06218 14.1312 5.35279 13.5578 5.81506 13.1417C6.27733 12.7257 6.87808 12.4969 7.5 12.5ZM22.8 10H22.5C21.1739 10 19.9021 10.5268 18.9645 11.4645C18.0268 12.4021 17.5 13.6739 17.5 15C17.5 16.3261 18.0268 17.5979 18.9645 18.5355C19.9021 19.4732 21.1739 20 22.5 20H22.8C20.6952 21.986 17.8932 23.0637 15 23C12.7875 23.025 10.625 22.4125 8.75 21.25L7.2 22.8C9.5375 24.2625 12.2375 25 15 25C21.875 25 27.5 20.525 27.5 15C27.5 12.35 25.4375 10.1625 22.8 10ZM22.5 17.5C21.837 17.5 21.2011 17.2366 20.7322 16.7678C20.2634 16.2989 20 15.663 20 15C20 13.6125 21.15 12.5 22.5 12.5C23.1219 12.4969 23.7227 12.7257 24.1849 13.1417C24.6472 13.5578 24.9378 14.1312 25 14.75V15.25C24.9378 15.8688 24.6472 16.4422 24.1849 16.8583C23.7227 17.2743 23.1219 17.5031 22.5 17.5Z" fill="#D4D4D4"/>
</svg>
