<svg width="30" height="30" viewBox="0 0 30 30" fill="none" xmlns="http://www.w3.org/2000/svg">
<path d="M25 21.25C25 22.2446 24.6049 23.1984 23.9017 23.9017C23.1984 24.6049 22.2446 25 21.25 25C20.2714 24.9507 19.3459 24.5398 18.653 23.847C17.9602 23.1541 17.5493 22.2286 17.5 21.25C17.7 19.2375 18.125 17.25 18.75 15.325C19.425 13.1875 19.8375 10.9875 20 8.75C19.957 7.10595 19.2847 5.5411 18.1218 4.37818C16.9589 3.21527 15.3941 2.54299 13.75 2.5C12.106 2.54299 10.5411 3.21527 9.37819 4.37818C8.21527 5.5411 7.54299 7.10595 7.50001 8.75C7.68751 10.6625 8.12501 12.5375 8.75001 14.375L9.01251 15.25C6.37501 14.4125 3.57501 15.875 2.73751 18.5C1.87501 21.1375 3.35001 23.95 5.98751 24.7875C8.62501 25.625 11.425 24.1625 12.2625 21.525C12.425 21.0375 12.5 20.5125 12.5 20C12.3 17.8375 11.875 15.7 11.1375 13.65C10.5837 12.0622 10.2024 10.4194 10 8.75C10.0493 7.77137 10.4602 6.8459 11.153 6.15303C11.8459 5.46016 12.7714 5.04926 13.75 5C15.775 5.1 17.4 6.725 17.5 8.75C17.2968 10.7641 16.8778 12.7505 16.25 14.675C15.575 16.8125 15.1625 19.0125 15 21.25C15.043 22.894 15.7153 24.4589 16.8782 25.6218C18.0411 26.7847 19.606 27.457 21.25 27.5C22.9076 27.5 24.4973 26.8415 25.6694 25.6694C26.8415 24.4973 27.5 22.9076 27.5 21.25H25ZM7.50001 22.5C6.83697 22.5 6.20108 22.2366 5.73224 21.7678C5.2634 21.2989 5.00001 20.663 5.00001 20C5.00001 19.337 5.2634 18.7011 5.73224 18.2322C6.20108 17.7634 6.83697 17.5 7.50001 17.5C8.16305 17.5 8.79893 17.7634 9.26777 18.2322C9.73661 18.7011 10 19.337 10 20C10 20.663 9.73661 21.2989 9.26777 21.7678C8.79893 22.2366 8.16305 22.5 7.50001 22.5Z" fill="#D4D4D4"/>
</svg>
