<svg width="30" height="30" viewBox="0 0 30 30" fill="none" xmlns="http://www.w3.org/2000/svg">
<path d="M25 20V22.5H16.25V19.8875C20 19.2 22.45 15.625 21.7625 11.875C21.075 8.125 17.5 5.675 13.75 6.3625C10 7.0625 7.55 10.625 8.2375 14.375C8.75 17.175 10.95 19.375 13.75 19.8875V22.5H5V20H8.65C7.69473 19.128 6.9322 18.0659 6.41128 16.882C5.89036 15.6981 5.62255 14.4184 5.625 13.125C5.625 10.6386 6.61272 8.25403 8.37087 6.49587C10.129 4.73772 12.5136 3.75 15 3.75C17.4864 3.75 19.871 4.73772 21.6291 6.49587C23.3873 8.25403 24.375 10.6386 24.375 13.125C24.375 15.7375 23.2875 18.2375 21.35 20H25ZM25 23.75H5V26.25H25V23.75Z" fill="#D4D4D4"/>
</svg>
