<svg width="30" height="30" viewBox="0 0 30 30" fill="none" xmlns="http://www.w3.org/2000/svg">
<path d="M25 13.75H22.5C22.6375 10.2375 23.4125 6.77501 24.7625 3.52501L22.5 2.57501C21.0104 6.12222 20.1638 9.90621 20 13.75H10C9.8375 9.90001 8.9875 6.12501 7.5 2.57501L5.175 3.52501C6.55 6.76251 7.3375 10.225 7.5 13.75H5V16.25H7.5C7.35742 19.7655 6.59135 23.2276 5.2375 26.475L7.5 27.425C8.9875 23.875 9.8375 20.1 10 16.25H20C20.1625 20.1 21.0125 23.875 22.5 27.425L24.825 26.475C23.45 23.2375 22.6625 19.775 22.5 16.25H25V13.75Z" fill="#D4D4D4"/>
</svg>
