<svg width="30" height="30" viewBox="0 0 30 30" fill="none" xmlns="http://www.w3.org/2000/svg">
<path d="M22.1375 19.1125L20.3625 20.8875L21.9875 22.5H20C19.337 22.5 18.7011 22.2366 18.2322 21.7678C17.7634 21.2989 17.5 20.663 17.5 20V7.5C17.5 6.50544 17.1049 5.55161 16.4017 4.84835C15.6984 4.14509 14.7446 3.75 13.75 3.75C12.8125 3.75 11.9375 4.1125 11.25 4.725C10.5628 4.10928 9.67265 3.7688 8.75 3.7688C7.82735 3.7688 6.93715 4.10928 6.25 4.725C5.5625 4.1 4.675 3.75 3.75 3.75V6.25C4.08152 6.25 4.39946 6.3817 4.63388 6.61612C4.8683 6.85054 5 7.16848 5 7.5V20H7.5V7.5C7.5 7.16848 7.6317 6.85054 7.86612 6.61612C8.10054 6.3817 8.41848 6.25 8.75 6.25C9.08152 6.25 9.39946 6.3817 9.63388 6.61612C9.8683 6.85054 10 7.16848 10 7.5V20H12.5V7.5C12.5 7.16848 12.6317 6.85054 12.8661 6.61612C13.1005 6.3817 13.4185 6.25 13.75 6.25C14.0815 6.25 14.3995 6.3817 14.6339 6.61612C14.8683 6.85054 15 7.16848 15 7.5V20C15 21.3261 15.5268 22.5979 16.4645 23.5355C17.4021 24.4732 18.6739 25 20 25H21.9875L20.3625 26.6125L22.1375 28.3875L26.7625 23.75L22.1375 19.1125Z" fill="#D4D4D4"/>
</svg>
