<svg width="30" height="30" viewBox="0 0 30 30" fill="none" xmlns="http://www.w3.org/2000/svg">
<path d="M18.75 15.5125L15 11.7625L11.25 15.5125L7.5 11.7625L4.6375 14.6375L2.8625 12.8625L7.5 8.23749L11.25 11.9875L15 8.23749L18.75 11.9875L22.5 8.23749L27.1375 12.8625L25.3625 14.6375L22.5 11.7625L18.75 15.5125ZM22.5 19.2625L25.3625 22.1375L27.1375 20.3625L22.5 15.7375L18.75 19.4875L15 15.7375L11.25 19.4875L7.5 15.7375L2.8625 20.3625L4.6375 22.1375L7.5 19.2625L11.25 23.0125L15 19.2625L18.75 23.0125L22.5 19.2625Z" fill="#D4D4D4"/>
</svg>
