<svg width="30" height="30" viewBox="0 0 30 30" fill="none" xmlns="http://www.w3.org/2000/svg">
<path d="M18.75 16.25C17.875 16.25 17.0125 16.4875 16.25 16.9375V7.5C16.25 6.50544 15.8549 5.55161 15.1517 4.84835C14.4484 4.14509 13.4946 3.75 12.5 3.75C11.5625 3.75 10.6875 4.1125 10 4.725C9.3125 4.1 8.425 3.75 7.5 3.75V6.25C7.83152 6.25 8.14946 6.3817 8.38388 6.61612C8.6183 6.85054 8.75 7.16848 8.75 7.5V20H11.25V7.5C11.25 7.16848 11.3817 6.85054 11.6161 6.61612C11.8505 6.3817 12.1685 6.25 12.5 6.25C12.8315 6.25 13.1495 6.3817 13.3839 6.61612C13.6183 6.85054 13.75 7.16848 13.75 7.5V21.25C13.75 21.913 13.4866 22.5489 13.0178 23.0178C12.5489 23.4866 11.913 23.75 11.25 23.75V26.25C12.6875 26.25 14.0625 25.625 15 24.525C15.4295 25.0224 15.9535 25.4297 16.5416 25.7232C17.1296 26.0166 17.7701 26.1905 18.4258 26.2347C19.0815 26.2788 19.7395 26.1925 20.3616 25.9805C20.9837 25.7686 21.5576 25.4353 22.05 25C24.1375 23.225 24.375 20.0625 22.55 17.975C22.0777 17.4314 21.4938 16.9959 20.8381 16.6982C20.1823 16.4006 19.4701 16.2477 18.75 16.25ZM18.75 23.75C18.087 23.75 17.4511 23.4866 16.9822 23.0178C16.5134 22.5489 16.25 21.913 16.25 21.25C16.25 20.587 16.5134 19.9511 16.9822 19.4822C17.4511 19.0134 18.087 18.75 18.75 18.75C19.413 18.75 20.0489 19.0134 20.5178 19.4822C20.9866 19.9511 21.25 20.587 21.25 21.25C21.25 21.913 20.9866 22.5489 20.5178 23.0178C20.0489 23.4866 19.413 23.75 18.75 23.75Z" fill="#D4D4D4"/>
</svg>
