<svg width="30" height="30" viewBox="0 0 30 30" fill="none" xmlns="http://www.w3.org/2000/svg">
<path d="M19.4875 11.25C20.7857 10.475 21.8608 9.37666 22.6079 8.06217C23.355 6.74768 23.7485 5.26195 23.75 3.75H21.25C21.25 5.4076 20.5915 6.99731 19.4194 8.16942C18.2473 9.34152 16.6576 10 15 10C13.3424 10 11.7527 9.34152 10.5806 8.16942C9.40848 6.99731 8.75 5.4076 8.75 3.75H6.25C6.25 6.825 7.875 9.675 10.5125 11.25C6.3625 13.75 5 19.1 7.5 23.25C9.9625 27.4 15.3375 28.75 19.4875 26.25C23.6375 23.8 25 18.425 22.5 14.275C21.7654 13.03 20.7294 11.9898 19.4875 11.25V11.25ZM15 25C13.3424 25 11.7527 24.3415 10.5806 23.1694C9.40848 21.9973 8.75 20.4076 8.75 18.75C8.75 17.0924 9.40848 15.5027 10.5806 14.3306C11.7527 13.1585 13.3424 12.5 15 12.5C16.6576 12.5 18.2473 13.1585 19.4194 14.3306C20.5915 15.5027 21.25 17.0924 21.25 18.75C21.25 20.4076 20.5915 21.9973 19.4194 23.1694C18.2473 24.3415 16.6576 25 15 25V25Z" fill="#D4D4D4"/>
</svg>
