<svg width="30" height="30" viewBox="0 0 30 30" fill="none" xmlns="http://www.w3.org/2000/svg">
<path d="M23.125 23.9125C25 22.2125 25 18.975 25 17.5C25 16.1739 24.4732 14.9021 23.5355 13.9645C22.5979 13.0268 21.3261 12.5 20 12.5C19.125 12.5 18.25 12.75 17.5 13.2V7.5C17.5 6.50544 17.1049 5.55161 16.4017 4.84835C15.6984 4.14509 14.7446 3.75 13.75 3.75C12.8125 3.75 11.9375 4.1125 11.25 4.725C10.5628 4.10928 9.67265 3.7688 8.75 3.7688C7.82735 3.7688 6.93715 4.10928 6.25 4.725C5.5625 4.1 4.675 3.75 3.75 3.75V6.25C4.08152 6.25 4.39946 6.3817 4.63388 6.61612C4.8683 6.85054 5 7.16848 5 7.5V20H7.5V7.5C7.5 7.16848 7.6317 6.85054 7.86612 6.61612C8.10054 6.3817 8.41848 6.25 8.75 6.25C9.08152 6.25 9.39946 6.3817 9.63388 6.61612C9.8683 6.85054 10 7.16848 10 7.5V20H12.5V7.5C12.5 7.16848 12.6317 6.85054 12.8661 6.61612C13.1005 6.3817 13.4185 6.25 13.75 6.25C14.0815 6.25 14.3995 6.3817 14.6339 6.61612C14.8683 6.85054 15 7.16848 15 7.5V17.5C15 18.975 15 22.2125 16.875 23.9125C15.9 24.425 14.85 24.8 13.75 25V27.5C15.3625 27.5 18.55 25.925 20 25.1625C21.45 25.925 24.6375 27.5 26.25 27.5V25C25.15 24.8 24.1 24.425 23.125 23.9125ZM20 15C20.663 15 21.2989 15.2634 21.7678 15.7322C22.2366 16.2011 22.5 16.837 22.5 17.5C22.5 21.15 21.825 22.5 20 22.5C18.175 22.5 17.5 21.15 17.5 17.5C17.5 16.837 17.7634 16.2011 18.2322 15.7322C18.7011 15.2634 19.337 15 20 15Z" fill="#D4D4D4"/>
</svg>
